Coordinates
version=1
nRows=49
nColumns=12
inDegrees=yes

Units are S.I. units (second, meters, Newtons, ...)
Angles are in degrees

endheader
time	SC_y	SC_z	SC_x	AC_y	AC_z	AC_x	GH_y	GH_z	GH_yy	EL_x	PS_y
       0.0              -14.37           34.9          21.55          45.58         -9.346         -19.22         -60.47          55.08          2.242          47.15          111.0
    0.0137              -14.37           34.9          21.55          45.58         -9.344         -19.22         -60.44          55.07          2.224          47.16          111.0
   0.02741              -14.37           34.9          21.55          45.58         -9.343         -19.22         -60.41          55.07          2.205          47.16          111.0
   0.04111              -14.37           34.9          21.54          45.58         -9.341         -19.22         -60.38          55.07          2.185          47.17          111.0
   0.05482              -14.38           34.9          21.54          45.58         -9.339         -19.22         -60.34          55.06          2.163          47.18          111.0
   0.06852              -14.38           34.9          21.54          45.58         -9.337         -19.21          -60.3          55.06           2.14          47.18          111.0
   0.08222              -14.38          34.89          21.54          45.58         -9.335         -19.21         -60.26          55.05          2.115          47.19          111.0
   0.09593              -14.38          34.89          21.54          45.58         -9.332         -19.21         -60.21          55.04          2.089           47.2          111.0
    0.1096              -14.38          34.89          21.54          45.58          -9.33         -19.21         -60.16          55.04          2.061          47.21          111.0
    0.1233              -14.39          34.89          21.54          45.57         -9.327         -19.21         -60.11          55.03           2.03          47.22          111.0
     0.137              -14.39          34.89          21.54          45.57         -9.325         -19.21         -60.05          55.02          1.998          47.23          111.0
    0.1507              -14.39          34.89          21.53          45.57         -9.321         -19.21         -59.99          55.01          1.963          47.24          111.0
    0.1644              -14.39          34.89          21.53          45.57         -9.318         -19.21         -59.93          55.01          1.925          47.26          111.1
    0.1781               -14.4          34.88          21.53          45.57         -9.315          -19.2         -59.86           55.0          1.884          47.27          111.1
    0.1919               -14.4          34.88          21.53          45.56         -9.311          -19.2         -59.78          54.99           1.84          47.28          111.1
    0.2056              -14.41          34.88          21.53          45.56         -9.307          -19.2          -59.7          54.98          1.792           47.3          111.1
    0.2193              -14.41          34.88          21.52          45.56         -9.302          -19.2         -59.61          54.96           1.74          47.32          111.1
     0.233              -14.41          34.88          21.52          45.55         -9.297          -19.2         -59.51          54.95          1.684          47.33          111.1
    0.2467              -14.42          34.87          21.52          45.55         -9.292         -19.19         -59.41          54.94          1.622          47.36          111.1
    0.2604              -14.42          34.87          21.52          45.55         -9.286         -19.19         -59.29          54.92          1.554          47.38          111.1
    0.2741              -14.43          34.87          21.51          45.54         -9.279         -19.19         -59.16           54.9           1.48           47.4          111.2
    0.2878              -14.44          34.86          21.51          45.54         -9.272         -19.18         -59.02          54.88          1.398          47.43          111.2
    0.3015              -14.44          34.86           21.5          45.53         -9.264         -19.18         -58.86          54.86          1.308          47.46          111.2
    0.3152              -14.45          34.86           21.5          45.53         -9.255         -19.18         -58.69          54.84          1.208          47.49          111.2
    0.3289              -14.46          34.85          21.49          45.52         -9.246         -19.17          -58.5          54.82          1.096          47.53          111.2
    0.3426              -14.47          34.85          21.49          45.52         -9.235         -19.17         -58.29          54.79         0.9723          47.57          111.3
    0.3563              -14.48          34.84          21.48          45.51         -9.223         -19.16         -58.05          54.75         0.8332          47.62          111.3
      0.37              -14.49          34.83          21.48           45.5         -9.209         -19.15         -57.78          54.72         0.6767          47.67          111.3
    0.3837              -14.51          34.83          21.47          45.49         -9.193         -19.15         -57.47          54.68         0.4998          47.73          111.4
    0.3974              -14.52          34.82          21.46          45.48         -9.176         -19.14         -57.13          54.63         0.2991          47.79          111.4
    0.4111              -14.54          34.81          21.45          45.47         -9.156         -19.13         -56.73          54.58         0.0699          47.87          111.5
    0.4248              -14.56           34.8          21.44          45.45         -9.133         -19.12         -56.28          54.52        -0.1931          47.95          111.5
    0.4385              -14.58          34.78          21.42          45.44         -9.106         -19.11         -55.75          54.45        -0.4967          48.05          111.6
    0.4522              -14.61          34.77          21.41          45.42         -9.075         -19.09         -55.15          54.37        -0.8495          48.17          111.7
    0.4659              -14.64          34.75          21.39          45.39         -9.039         -19.08         -54.43          54.27         -1.262          48.31          111.8
    0.4796              -14.68          34.73          21.37          45.37         -8.996         -19.06          -53.6          54.16         -1.749          48.47          111.9
    0.4933              -14.73           34.7          21.34          45.34         -8.946         -19.03          -52.6          54.03         -2.327          48.66          112.0
     0.507              -14.78          34.67          21.31           45.3         -8.885          -19.0          -51.4          53.87          -3.02          48.89          112.1
    0.5207              -14.85          34.64          21.27          45.25         -8.812         -18.97         -49.96          53.68         -3.859          49.17          112.3
    0.5344              -14.93          34.59          21.22           45.2         -8.722         -18.93         -48.19          53.44         -4.883           49.5          112.6
    0.5482              -15.03          34.54          21.16          45.13         -8.611         -18.88         -46.01          53.15         -6.148          49.92          112.8
    0.5619              -15.15          34.47          21.09          45.04         -8.473         -18.81          -43.3          52.79         -7.725          50.44          113.2
    0.5756              -15.31          34.38           21.0          44.94         -8.299         -18.73         -39.87          52.33         -9.711           51.1          113.6
    0.5893               -15.5          34.28          20.89           44.8         -8.078         -18.63         -35.52          51.75         -12.24          51.93          114.2
     0.603              -15.76          34.14          20.74          44.62         -7.795         -18.49         -29.95          51.01         -15.47           53.0          114.9
    0.6167              -16.08          33.96          20.55           44.4         -7.432         -18.32          -22.8          50.05         -19.61          54.37          115.8
    0.6304               -16.5          33.73          20.31          44.11         -6.968         -18.11         -13.67          48.83         -24.91          56.12          117.0
    0.6441              -17.02          33.44          20.01          43.75         -6.385         -17.83         -2.189           47.3         -31.57          58.32          118.5
    0.6578              -17.65          33.09          19.64          43.31         -5.675          -17.5           11.8          45.44         -39.69           61.0          120.3
